<?xml version="1.0" encoding="iso-8859-1"?>
<!-- Generator: Adobe Illustrator 19.0.0, SVG Export Plug-In . SVG Version: 6.00 Build 0)  -->
<svg version="1.1" id="Layer_1" xmlns="http://www.w3.org/2000/svg" xmlns:xlink="http://www.w3.org/1999/xlink" x="0px" y="0px"
	 viewBox="0 0 512 512" style="enable-background:new 0 0 512 512;" xml:space="preserve">
<polygon style="fill:#FF877F;" points="499.2,358.4 320,358.4 320,230.4 409.591,230.391 499.2,252.809 "/>
<rect x="12.8" y="102.4" style="fill:#538489;" width="307.2" height="256"/>
<g>
	<circle style="fill:#919CB0;" cx="153.6" cy="358.4" r="51.2"/>
	<circle style="fill:#919CB0;" cx="396.8" cy="358.4" r="51.2"/>
</g>
<polygon style="fill:#E2EFF0;" points="409.591,230.391 320,230.4 320,153.6 442.052,153.6 499.2,252.809 "/>
<path style="fill:#573A32;" d="M25.6,371.2h65.297c5.948,29.175,31.795,51.2,62.703,51.2s56.755-22.025,62.703-51.2h117.794
	c5.948,29.175,31.795,51.2,62.703,51.2s56.755-22.025,62.703-51.2H486.4c14.14,0,25.6-11.46,25.6-25.6V243.209
	c0-5.052-1.493-9.993-4.301-14.199l-51.2-76.809c-4.745-7.125-12.74-11.401-21.299-11.401H332.8v-25.6c0-14.14-11.46-25.6-25.6-25.6
	H25.6C11.46,89.6,0,101.06,0,115.2v230.4C0,359.74,11.46,371.2,25.6,371.2z M396.8,396.8c-21.205,0-38.4-17.195-38.4-38.4
	c0-21.205,17.195-38.4,38.4-38.4c21.205,0,38.4,17.195,38.4,38.4C435.2,379.605,418.005,396.8,396.8,396.8z M332.8,166.4h102.4
	l45.756,68.642l-68.25-17.067c-1.015-0.247-2.057-0.375-3.106-0.375h-76.8V166.4z M332.8,243.2h75.221l78.379,19.601V281.6h-25.6
	v25.6h25.6v38.4h-26.897c-5.948-29.175-31.795-51.2-62.703-51.2s-56.755,22.025-62.703,51.2H332.8V243.2z M153.6,396.8
	c-21.205,0-38.4-17.195-38.4-38.4c0-21.205,17.195-38.4,38.4-38.4s38.4,17.195,38.4,38.4C192,379.605,174.805,396.8,153.6,396.8z
	 M25.6,320h25.6v-25.6H25.6V115.2h281.6v230.4h-90.897c-5.948-29.175-31.795-51.2-62.703-51.2s-56.755,22.025-62.703,51.2H25.6V320z
	"/>
<g>
</g>
<g>
</g>
<g>
</g>
<g>
</g>
<g>
</g>
<g>
</g>
<g>
</g>
<g>
</g>
<g>
</g>
<g>
</g>
<g>
</g>
<g>
</g>
<g>
</g>
<g>
</g>
<g>
</g>
</svg>
