<?xml version="1.0" encoding="iso-8859-1"?>
<!-- Generator: Adobe Illustrator 19.0.0, SVG Export Plug-In . SVG Version: 6.00 Build 0)  -->
<svg version="1.1" id="Layer_1" xmlns="http://www.w3.org/2000/svg" xmlns:xlink="http://www.w3.org/1999/xlink" x="0px" y="0px"
	 viewBox="0 0 512 512" style="enable-background:new 0 0 512 512;" xml:space="preserve">
<g>
	<g>
		<path d="M500.599,55.501l-76.8-51.2C419.593,1.493,414.652,0,409.6,0H102.4c-5.052,0-9.993,1.493-14.199,4.301l-76.8,51.2
			C4.275,60.245,0,68.241,0,76.8v409.6C0,500.54,11.46,512,25.6,512h460.8c14.14,0,25.6-11.46,25.6-25.6V76.8
			C512,68.241,507.725,60.245,500.599,55.501z M307.2,25.6h102.4L467.2,64h-160V25.6z M230.4,25.6h51.2V64h-51.2V25.6z M230.4,89.6
			h51.2v140.8h-51.2V89.6z M102.4,25.6h102.4V64h-160L102.4,25.6z M486.4,486.4H25.6V89.6h179.2V256h102.4V89.6h179.2V486.4z"/>
	</g>
</g>
<g>
</g>
<g>
</g>
<g>
</g>
<g>
</g>
<g>
</g>
<g>
</g>
<g>
</g>
<g>
</g>
<g>
</g>
<g>
</g>
<g>
</g>
<g>
</g>
<g>
</g>
<g>
</g>
<g>
</g>
</svg>
